<?xml version="1.0" encoding="UTF-8" standalone="no"?>
<!DOCTYPE svg PUBLIC "-//W3C//DTD SVG 1.1//EN" "http://www.w3.org/Graphics/SVG/1.1/DTD/svg11.dtd">
<svg version="1.1" xmlns="http://www.w3.org/2000/svg" xmlns:xlink="http://www.w3.org/1999/xlink" preserveAspectRatio="xMidYMid meet" viewBox="50.052020882654126 100.75252629865187 541.895958234692 133.54666371000974" width="537.9" height="129.55"><defs><path d="M81.57 174.34C79.54 174.34 69.36 174.34 51.05 174.34C51.05 167.18 51.05 109.94 51.05 102.78C65.5 102.78 73.53 102.78 75.14 102.78C92.32 102.78 100.31 110.03 100.31 122.78C100.31 128.77 97.87 133.64 92.71 136.37C100.31 138.71 105.38 143.67 105.38 153.89C105.38 166.35 98.41 174.34 81.57 174.34ZM68.86 130.57C72.84 130.57 75.04 130.57 75.48 130.57C81.67 130.57 83.32 127.8 83.32 124C83.32 120.4 81.23 117.92 75.48 117.92C74.6 117.92 72.4 117.92 68.86 117.92C68.86 120.45 68.86 129.3 68.86 130.57ZM77.97 144.54C77.36 144.54 74.33 144.54 68.86 144.54C68.86 145.48 68.86 150.19 68.86 158.66C74.33 158.66 77.36 158.66 77.97 158.66C84.26 156.36 87.41 154.07 87.41 151.8C87.41 148.44 86.14 144.54 77.97 144.54ZM114.72 102.78C116.57 102.78 131.41 102.78 133.26 102.78C133.26 128.66 133.26 143.03 133.26 145.91C133.26 156.09 138.03 159.1 144.02 159.1C150 159.1 154.78 156.09 154.78 145.91C154.78 143.03 154.78 128.66 154.78 102.78C156.64 102.78 171.47 102.78 173.33 102.78C173.33 130.18 173.33 145.39 173.33 148.44C173.33 167.86 160.37 175.31 144.02 175.31C127.67 175.31 114.72 167.85 114.72 148.44C114.72 145.39 114.72 130.18 114.72 102.78ZM220.16 101.75C234.52 101.75 246.1 108.13 252.38 118.69C250.76 119.56 237.75 126.5 236.12 127.36C232.96 120.79 227.26 117.62 220.16 117.62C209.4 117.62 201.51 125.07 201.51 138.27C201.51 150.62 208.52 159.48 220.89 159.48C227.75 159.48 235.35 156.71 237.63 148.63C236.52 148.63 230.97 148.63 220.98 148.63C220.98 147.66 220.98 142.77 220.98 133.98L254.96 133.98L254.96 174.34C246.35 174.34 241.56 174.34 240.61 174.34C240.61 169.72 240.61 167.15 240.61 166.64C236.12 171.95 229.26 175.31 219.08 175.31C198.06 175.31 183.01 160.66 183.01 138.74C183.01 116.41 198.54 101.75 220.16 101.75ZM300.53 101.75C317.62 101.75 330.95 110.71 335.72 125.26C333.99 125.87 320.12 130.75 318.39 131.35C316 123.36 309.14 118.59 300.53 118.59C289.77 118.59 281.78 126.29 281.78 138.56C281.78 150.82 289.77 158.46 300.53 158.46C309.14 158.46 316 153.7 318.39 145.71C320.12 146.31 333.99 151.19 335.72 151.8C330.95 166.35 317.62 175.31 300.53 175.31C278.91 175.31 263.38 160.76 263.38 138.56C263.38 116.31 278.91 101.75 300.53 101.75ZM382.89 174.34L364.24 143.67L364.24 174.34L345.7 174.34C345.7 131.4 345.7 107.54 345.7 102.77C362.15 102.77 371.28 102.77 373.1 102.77C390.24 102.77 397.05 112.61 397.05 124.88C397.05 134.96 391.12 140.84 382.55 142.69C385.53 146.91 392.98 157.46 404.9 174.34C401.96 174.34 394.63 174.34 382.89 174.34ZM364.24 117.92C364.24 119.35 364.24 130.84 364.24 132.27C367.72 132.27 369.66 132.27 370.04 132.27C376.9 132.27 379.39 129.45 379.39 125.07C379.39 120.69 376.9 117.92 370.04 117.92C369.66 117.92 367.72 117.92 364.24 117.92ZM428.8 161.09L424.23 174.34L405.39 174.34L431.72 102.77L454.55 102.77L480.88 174.34L462.04 174.34L457.42 161.09L428.8 161.09ZM452.11 145.8L443.1 119.91L434.11 145.8L452.11 145.8ZM507.89 130.57L530.09 130.57L530.09 146.54L507.89 146.54L507.89 174.34L489.35 174.34L489.35 102.77L533.79 102.77L533.79 118.89L507.89 118.89L507.89 130.57ZM572.78 118.89L572.78 174.34L554.43 174.34L554.43 118.89L538.23 118.89L538.23 102.77L588.95 102.77L588.95 118.89L572.78 118.89Z" id="aD4a6PC35"></path><path d="M81.57 174.34C79.54 174.34 69.36 174.34 51.05 174.34C51.05 167.18 51.05 109.94 51.05 102.78C65.5 102.78 73.53 102.78 75.14 102.78C92.32 102.78 100.31 110.03 100.31 122.78C100.31 128.77 97.87 133.64 92.71 136.37C100.31 138.71 105.38 143.67 105.38 153.89C105.38 166.35 98.41 174.34 81.57 174.34ZM68.86 130.57C72.84 130.57 75.04 130.57 75.48 130.57C81.67 130.57 83.32 127.8 83.32 124C83.32 120.4 81.23 117.92 75.48 117.92C74.6 117.92 72.4 117.92 68.86 117.92C68.86 120.45 68.86 129.3 68.86 130.57ZM77.97 144.54C77.36 144.54 74.33 144.54 68.86 144.54C68.86 145.48 68.86 150.19 68.86 158.66C74.33 158.66 77.36 158.66 77.97 158.66C84.26 156.36 87.41 154.07 87.41 151.8C87.41 148.44 86.14 144.54 77.97 144.54ZM114.72 102.78C116.57 102.78 131.41 102.78 133.26 102.78C133.26 128.66 133.26 143.03 133.26 145.91C133.26 156.09 138.03 159.1 144.02 159.1C150 159.1 154.78 156.09 154.78 145.91C154.78 143.03 154.78 128.66 154.78 102.78C156.64 102.78 171.47 102.78 173.33 102.78C173.33 130.18 173.33 145.39 173.33 148.44C173.33 167.86 160.37 175.31 144.02 175.31C127.67 175.31 114.72 167.85 114.72 148.44C114.72 145.39 114.72 130.18 114.72 102.78ZM220.16 101.75C234.52 101.75 246.1 108.13 252.38 118.69C250.76 119.56 237.75 126.5 236.12 127.36C232.96 120.79 227.26 117.62 220.16 117.62C209.4 117.62 201.51 125.07 201.51 138.27C201.51 150.62 208.52 159.48 220.89 159.48C227.75 159.48 235.35 156.71 237.63 148.63C236.52 148.63 230.97 148.63 220.98 148.63C220.98 147.66 220.98 142.77 220.98 133.98L254.96 133.98L254.96 174.34C246.35 174.34 241.56 174.34 240.61 174.34C240.61 169.72 240.61 167.15 240.61 166.64C236.12 171.95 229.26 175.31 219.08 175.31C198.06 175.31 183.01 160.66 183.01 138.74C183.01 116.41 198.54 101.75 220.16 101.75ZM300.53 101.75C317.62 101.75 330.95 110.71 335.72 125.26C333.99 125.87 320.12 130.75 318.39 131.35C316 123.36 309.14 118.59 300.53 118.59C289.77 118.59 281.78 126.29 281.78 138.56C281.78 150.82 289.77 158.46 300.53 158.46C309.14 158.46 316 153.7 318.39 145.71C320.12 146.31 333.99 151.19 335.72 151.8C330.95 166.35 317.62 175.31 300.53 175.31C278.91 175.31 263.38 160.76 263.38 138.56C263.38 116.31 278.91 101.75 300.53 101.75ZM382.89 174.34L364.24 143.67L364.24 174.34L345.7 174.34C345.7 131.4 345.7 107.54 345.7 102.77C362.15 102.77 371.28 102.77 373.1 102.77C390.24 102.77 397.05 112.61 397.05 124.88C397.05 134.96 391.12 140.84 382.55 142.69C385.53 146.91 392.98 157.46 404.9 174.34C401.96 174.34 394.63 174.34 382.89 174.34ZM364.24 117.92C364.24 119.35 364.24 130.84 364.24 132.27C367.72 132.27 369.66 132.27 370.04 132.27C376.9 132.27 379.39 129.45 379.39 125.07C379.39 120.69 376.9 117.92 370.04 117.92C369.66 117.92 367.72 117.92 364.24 117.92ZM428.8 161.09L424.23 174.34L405.39 174.34L431.72 102.77L454.55 102.77L480.88 174.34L462.04 174.34L457.42 161.09L428.8 161.09ZM452.11 145.8L443.1 119.91L434.11 145.8L452.11 145.8ZM507.89 130.57L530.09 130.57L530.09 146.54L507.89 146.54L507.89 174.34L489.35 174.34L489.35 102.77L533.79 102.77L533.79 118.89L507.89 118.89L507.89 130.57ZM572.78 118.89L572.78 174.34L554.43 174.34L554.43 118.89L538.23 118.89L538.23 102.77L588.95 102.77L588.95 118.89L572.78 118.89Z" id="a17M9TVui"></path><path d="M169.67 224.38C169.38 224.1 169.31 223.68 169.46 223.33C169.71 222.5 171.65 215.84 171.9 215.01C172.05 214.73 172.25 214.52 172.54 214.52C172.81 214.45 173.09 214.52 173.3 214.73C177.01 218.23 181.2 221.37 186.45 221.65C187.85 221.72 189.39 221.79 190.72 221.37C194.84 220.05 193.09 215.85 190.01 214.59C188.97 214.17 187.5 213.68 185.61 213.13C182.82 212.35 180.51 211.51 178.75 210.68C176.87 209.84 175.26 208.5 173.86 206.76C172.54 204.94 171.83 202.56 171.83 199.69C171.83 196.97 172.54 194.59 173.94 192.56C175.33 190.54 177.28 188.93 179.73 187.88C182.18 186.83 185.05 186.27 188.27 186.27C191.13 186.27 193.93 186.69 196.73 187.6C199.45 188.44 201.9 189.63 204.07 191.03C204.42 191.3 204.56 191.72 204.35 192.14C204.12 192.93 202.27 199.19 202.05 199.98C201.97 200.26 201.76 200.4 201.48 200.47C201.27 200.53 200.99 200.53 200.78 200.4C197.64 198.44 194.49 196.06 190.79 195.57C188.34 195.22 184.63 195.36 183.8 198.3C182.74 202.07 188.27 203.05 190.79 203.82C193.58 204.66 195.89 205.5 197.71 206.34C199.6 207.25 201.27 208.65 202.6 210.39C204 212.22 204.7 214.66 204.7 217.6C204.7 220.47 203.93 222.91 202.46 225.01C201.07 227.11 199.03 228.65 196.51 229.76C194 230.74 191.21 231.3 188.05 231.3C184.7 231.3 181.35 230.67 178.13 229.42C174.91 228.22 172.05 226.48 169.67 224.38ZM235.06 196.97C229.32 196.97 226.12 196.97 225.49 196.97C225 196.97 224.58 196.62 224.58 196.13C224.58 195.33 224.58 188.89 224.58 188.09C224.58 187.6 225 187.18 225.49 187.18C228.48 187.18 252.48 187.18 255.48 187.18C256.05 187.18 256.39 187.6 256.39 188.09C256.39 188.89 256.39 195.33 256.39 196.13C256.39 196.62 256.05 196.97 255.48 196.97C254.84 196.97 251.65 196.97 245.9 196.97C245.9 216.77 245.9 227.77 245.9 229.98C245.9 230.47 245.48 230.89 244.99 230.89C244.39 230.89 241.36 230.89 235.91 230.89C235.35 230.6 235.06 230.3 235.06 229.98C235.06 227.77 235.06 216.77 235.06 196.97ZM278.58 222.01C277.04 219.21 276.27 215.85 276.27 212C276.27 209.54 276.27 189.85 276.27 187.39C276.27 186.9 276.69 186.55 277.18 186.55C278.09 186.55 285.36 186.55 286.27 186.55C286.76 186.55 287.11 186.9 287.11 187.39C287.11 189.85 287.11 209.54 287.11 212C287.11 214.8 287.88 216.96 289.35 218.51C290.82 220.05 292.14 220.81 294.59 220.81C297.03 220.81 298.3 220.05 299.7 218.58C301.1 217.04 301.79 214.8 301.79 212C301.79 209.54 301.79 189.85 301.79 187.39C301.79 186.9 302.21 186.55 302.7 186.55C303.61 186.55 310.88 186.55 311.79 186.55C312.28 186.55 312.7 186.9 312.7 187.39C312.7 189.85 312.7 209.54 312.7 212C312.7 215.85 311.94 219.21 310.39 222.01C308.92 224.87 306.69 227.04 303.89 228.58C301.1 230.11 298.3 230.89 294.52 230.89C290.75 230.89 288.02 230.11 285.15 228.58C282.36 227.04 280.11 224.87 278.58 222.01ZM332.58 188.09C332.58 187.6 332.93 187.18 333.49 187.18C335.07 187.18 347.77 187.18 349.36 187.18C353.56 187.18 357.4 188.09 360.76 189.98C364.12 191.79 366.7 194.39 368.59 197.73C370.41 201.02 371.39 204.8 371.39 208.99C371.39 213.26 370.41 217.04 368.52 220.32C366.63 223.68 363.98 226.27 360.55 228.09C357.19 229.98 353.28 230.89 349.01 230.89C347.98 230.89 342.8 230.89 333.49 230.89C332.88 230.6 332.58 230.3 332.58 229.98C332.58 225.79 332.58 192.28 332.58 188.09ZM355.1 219.63C356.7 218.58 358.04 217.18 358.95 215.36C359.85 213.54 360.34 211.44 360.34 209.06C360.34 206.76 359.85 204.59 358.87 202.78C357.89 200.89 356.57 199.49 354.88 198.44C353.21 197.46 351.25 196.9 349.15 196.9C348.77 196.9 346.85 196.9 343.42 196.9C343.42 199.32 343.42 218.68 343.42 221.1C347.11 221.1 349.16 221.1 349.58 221.1C351.6 221.1 353.48 220.61 355.1 219.63ZM391.27 188.09C391.27 187.6 391.69 187.18 392.18 187.18C393.08 187.18 400.35 187.18 401.26 187.18C401.75 187.18 402.18 187.6 402.18 188.09C402.18 192.28 402.18 225.79 402.18 229.98C402.18 230.47 401.75 230.89 401.26 230.89C400.66 230.89 397.63 230.89 392.18 230.89C391.57 230.6 391.27 230.3 391.27 229.98C391.27 225.79 391.27 192.28 391.27 188.09ZM424.99 219.83C423.03 216.41 422.05 212.49 422.05 208.3C422.05 204.18 423.03 200.33 424.99 196.9C427.02 193.47 429.67 190.74 433.1 188.78C436.52 186.83 440.37 185.85 444.56 185.85C448.69 185.85 452.54 186.83 455.97 188.78C459.39 190.74 462.12 193.47 464.08 196.9C466.1 200.33 467.08 204.18 467.08 208.3C467.08 212.49 466.1 216.34 464.08 219.76C462.12 223.19 459.39 225.92 455.97 227.95C452.54 229.91 448.69 230.89 444.56 230.89C440.37 230.89 436.52 229.91 433.17 227.95C429.74 225.99 427.02 223.19 424.99 219.83ZM454.42 214.66C455.48 212.77 455.97 210.61 455.97 208.3C455.97 206.06 455.48 203.89 454.42 202C453.44 200.11 452.05 198.64 450.3 197.53C448.63 196.48 446.74 195.92 444.71 195.92C442.61 195.92 440.72 196.48 438.97 197.53C437.15 198.64 435.76 200.11 434.7 202C433.65 203.96 433.17 206.06 433.17 208.3C433.17 210.61 433.65 212.77 434.7 214.66C435.83 216.55 437.23 218.09 438.97 219.14C440.72 220.25 442.61 220.81 444.71 220.81C446.74 220.81 448.63 220.25 450.3 219.21C452.05 218.09 453.44 216.62 454.42 214.66Z" id="c2EOghA6ya"></path><path d="M169.67 224.38C169.38 224.1 169.31 223.68 169.46 223.33C169.71 222.5 171.65 215.84 171.9 215.01C172.05 214.73 172.25 214.52 172.54 214.52C172.81 214.45 173.09 214.52 173.3 214.73C177.01 218.23 181.2 221.37 186.45 221.65C187.85 221.72 189.39 221.79 190.72 221.37C194.84 220.05 193.09 215.85 190.01 214.59C188.97 214.17 187.5 213.68 185.61 213.13C182.82 212.35 180.51 211.51 178.75 210.68C176.87 209.84 175.26 208.5 173.86 206.76C172.54 204.94 171.83 202.56 171.83 199.69C171.83 196.97 172.54 194.59 173.94 192.56C175.33 190.54 177.28 188.93 179.73 187.88C182.18 186.83 185.05 186.27 188.27 186.27C191.13 186.27 193.93 186.69 196.73 187.6C199.45 188.44 201.9 189.63 204.07 191.03C204.42 191.3 204.56 191.72 204.35 192.14C204.12 192.93 202.27 199.19 202.05 199.98C201.97 200.26 201.76 200.4 201.48 200.47C201.27 200.53 200.99 200.53 200.78 200.4C197.64 198.44 194.49 196.06 190.79 195.57C188.34 195.22 184.63 195.36 183.8 198.3C182.74 202.07 188.27 203.05 190.79 203.82C193.58 204.66 195.89 205.5 197.71 206.34C199.6 207.25 201.27 208.65 202.6 210.39C204 212.22 204.7 214.66 204.7 217.6C204.7 220.47 203.93 222.91 202.46 225.01C201.07 227.11 199.03 228.65 196.51 229.76C194 230.74 191.21 231.3 188.05 231.3C184.7 231.3 181.35 230.67 178.13 229.42C174.91 228.22 172.05 226.48 169.67 224.38ZM235.06 196.97C229.32 196.97 226.12 196.97 225.49 196.97C225 196.97 224.58 196.62 224.58 196.13C224.58 195.33 224.58 188.89 224.58 188.09C224.58 187.6 225 187.18 225.49 187.18C228.48 187.18 252.48 187.18 255.48 187.18C256.05 187.18 256.39 187.6 256.39 188.09C256.39 188.89 256.39 195.33 256.39 196.13C256.39 196.62 256.05 196.97 255.48 196.97C254.84 196.97 251.65 196.97 245.9 196.97C245.9 216.77 245.9 227.77 245.9 229.98C245.9 230.47 245.48 230.89 244.99 230.89C244.39 230.89 241.36 230.89 235.91 230.89C235.35 230.6 235.06 230.3 235.06 229.98C235.06 227.77 235.06 216.77 235.06 196.97ZM278.58 222.01C277.04 219.21 276.27 215.85 276.27 212C276.27 209.54 276.27 189.85 276.27 187.39C276.27 186.9 276.69 186.55 277.18 186.55C278.09 186.55 285.36 186.55 286.27 186.55C286.76 186.55 287.11 186.9 287.11 187.39C287.11 189.85 287.11 209.54 287.11 212C287.11 214.8 287.88 216.96 289.35 218.51C290.82 220.05 292.14 220.81 294.59 220.81C297.03 220.81 298.3 220.05 299.7 218.58C301.1 217.04 301.79 214.8 301.79 212C301.79 209.54 301.79 189.85 301.79 187.39C301.79 186.9 302.21 186.55 302.7 186.55C303.61 186.55 310.88 186.55 311.79 186.55C312.28 186.55 312.7 186.9 312.7 187.39C312.7 189.85 312.7 209.54 312.7 212C312.7 215.85 311.94 219.21 310.39 222.01C308.92 224.87 306.69 227.04 303.89 228.58C301.1 230.11 298.3 230.89 294.52 230.89C290.75 230.89 288.02 230.11 285.15 228.58C282.36 227.04 280.11 224.87 278.58 222.01ZM332.58 188.09C332.58 187.6 332.93 187.18 333.49 187.18C335.07 187.18 347.77 187.18 349.36 187.18C353.56 187.18 357.4 188.09 360.76 189.98C364.12 191.79 366.7 194.39 368.59 197.73C370.41 201.02 371.39 204.8 371.39 208.99C371.39 213.26 370.41 217.04 368.52 220.32C366.63 223.68 363.98 226.27 360.55 228.09C357.19 229.98 353.28 230.89 349.01 230.89C347.98 230.89 342.8 230.89 333.49 230.89C332.88 230.6 332.58 230.3 332.58 229.98C332.58 225.79 332.58 192.28 332.58 188.09ZM355.1 219.63C356.7 218.58 358.04 217.18 358.95 215.36C359.85 213.54 360.34 211.44 360.34 209.06C360.34 206.76 359.85 204.59 358.87 202.78C357.89 200.89 356.57 199.49 354.88 198.44C353.21 197.46 351.25 196.9 349.15 196.9C348.77 196.9 346.85 196.9 343.42 196.9C343.42 199.32 343.42 218.68 343.42 221.1C347.11 221.1 349.16 221.1 349.58 221.1C351.6 221.1 353.48 220.61 355.1 219.63ZM391.27 188.09C391.27 187.6 391.69 187.18 392.18 187.18C393.08 187.18 400.35 187.18 401.26 187.18C401.75 187.18 402.18 187.6 402.18 188.09C402.18 192.28 402.18 225.79 402.18 229.98C402.18 230.47 401.75 230.89 401.26 230.89C400.66 230.89 397.63 230.89 392.18 230.89C391.57 230.6 391.27 230.3 391.27 229.98C391.27 225.79 391.27 192.28 391.27 188.09ZM424.99 219.83C423.03 216.41 422.05 212.49 422.05 208.3C422.05 204.18 423.03 200.33 424.99 196.9C427.02 193.47 429.67 190.74 433.1 188.78C436.52 186.83 440.37 185.85 444.56 185.85C448.69 185.85 452.54 186.83 455.97 188.78C459.39 190.74 462.12 193.47 464.08 196.9C466.1 200.33 467.08 204.18 467.08 208.3C467.08 212.49 466.1 216.34 464.08 219.76C462.12 223.19 459.39 225.92 455.97 227.95C452.54 229.91 448.69 230.89 444.56 230.89C440.37 230.89 436.52 229.91 433.17 227.95C429.74 225.99 427.02 223.19 424.99 219.83ZM454.42 214.66C455.48 212.77 455.97 210.61 455.97 208.3C455.97 206.06 455.48 203.89 454.42 202C453.44 200.11 452.05 198.64 450.3 197.53C448.63 196.48 446.74 195.92 444.71 195.92C442.61 195.92 440.72 196.48 438.97 197.53C437.15 198.64 435.76 200.11 434.7 202C433.65 203.96 433.17 206.06 433.17 208.3C433.17 210.61 433.65 212.77 434.7 214.66C435.83 216.55 437.23 218.09 438.97 219.14C440.72 220.25 442.61 220.81 444.71 220.81C446.74 220.81 448.63 220.25 450.3 219.21C452.05 218.09 453.44 216.62 454.42 214.66Z" id="jVzC4XqjO"></path></defs><g><g><use xlink:href="#aD4a6PC35" opacity="1" fill="#ffffff" fill-opacity="1"></use><g><use xlink:href="#aD4a6PC35" opacity="1" fill-opacity="0" stroke="#000000" stroke-width="1" stroke-opacity="0"></use></g></g><g><use xlink:href="#a17M9TVui" opacity="1" fill="#000000" fill-opacity="0"></use><g><use xlink:href="#a17M9TVui" opacity="1" fill-opacity="0" stroke="#000000" stroke-width="1" stroke-opacity="0"></use></g></g><g><use xlink:href="#c2EOghA6ya" opacity="1" fill="#ffffff" fill-opacity="1"></use><g><use xlink:href="#c2EOghA6ya" opacity="1" fill-opacity="0" stroke="#000000" stroke-width="1" stroke-opacity="0"></use></g></g><g><use xlink:href="#jVzC4XqjO" opacity="1" fill="#000000" fill-opacity="0"></use><g><use xlink:href="#jVzC4XqjO" opacity="1" fill-opacity="0" stroke="#000000" stroke-width="1" stroke-opacity="0"></use></g></g></g></svg>